<?xml version="1.0" encoding="UTF-8" standalone="no"?>
<svg width="24px" height="26px" viewBox="0 0 24 26" version="1.1" xmlns="http://www.w3.org/2000/svg" xmlns:xlink="http://www.w3.org/1999/xlink" xmlns:sketch="http://www.bohemiancoding.com/sketch/ns">
    <!-- Generator: Sketch 3.5 (25232) - http://www.bohemiancoding.com/sketch -->
    <title>detailpage-icon-bedroom@3x</title>
    <desc>Created with Sketch.</desc>
    <defs></defs>
    <g id="Welcome" stroke="none" stroke-width="1" fill="none" fill-rule="evenodd" sketch:type="MSPage">
        <g id="detailspage" sketch:type="MSArtboardGroup" transform="translate(-451.000000, -527.000000)" stroke="#3E747E" stroke-width="1.5">
            <path d="M464.177695,539.061589 C464.208712,540.984613 464.177695,542.876621 464.177695,544.799645 C464.829042,544.768629 465.604455,544.799645 466.286818,544.799645 L466.286818,547.094868 L464.177695,547.094868 L464.177695,548.149429 L467.930694,548.149429 L467.930694,550.537701 C466.628,550.506685 465.480389,550.568718 464.208712,550.537701 C464.208712,551.592263 464.177695,552.584792 464.208712,553.57732 C463.309232,553.546304 462.595852,553.57732 461.789423,553.57732 C461.789423,553.546304 461.789423,543.900166 461.820439,539.247688 C461.820439,538.937523 461.789423,538.844473 461.448241,538.751424 C457.292028,537.665845 455.648152,532.765235 458.25354,529.384435 C460.579779,526.344816 465.015141,526.189733 467.558496,529.043253 C469.38847,531.12136 469.48152,534.378094 467.806628,536.580267 C466.938165,537.727879 465.790554,538.472275 464.425827,538.844473 C464.270745,538.844473 464.177695,538.937523 464.177695,539.061589 L464.177695,539.061589 Z M465.511405,535.556722 C466.907149,534.160979 466.938165,531.83474 465.542422,530.438996 C464.177695,529.043253 461.851456,529.043253 460.455713,530.438996 C459.028953,531.865756 458.997936,534.129962 460.39368,535.556722 C461.789423,536.952466 464.115662,536.952466 465.511405,535.556722 L465.511405,535.556722 Z" id="detailpage-icon-bedroom" sketch:type="MSShapeGroup" transform="translate(463.000000, 540.288660) rotate(-37.000000) translate(-463.000000, -540.288660) "></path>
        </g>
    </g>
</svg>