<?xml version="1.0" encoding="UTF-8" standalone="no"?>
<svg width="32px" height="23px" viewBox="0 0 32 23" version="1.1" xmlns="http://www.w3.org/2000/svg" xmlns:xlink="http://www.w3.org/1999/xlink" xmlns:sketch="http://www.bohemiancoding.com/sketch/ns">
    <!-- Generator: Sketch 3.5 (25232) - http://www.bohemiancoding.com/sketch -->
    <title>detailpage-icon-guests@3x</title>
    <desc>Created with Sketch.</desc>
    <defs></defs>
    <g id="Welcome" stroke="none" stroke-width="1" fill="none" fill-rule="evenodd" sketch:type="MSPage">
        <g id="detailspage" sketch:type="MSArtboardGroup" transform="translate(-354.000000, -532.000000)" fill="#3E747E">
            <path d="M380.412903,546.541935 C381.48871,545.651613 382.193548,544.241935 382.193548,542.758065 C382.193548,540.198387 380.116129,537.935484 377.741935,537.935484 C375.367742,537.935484 373.290323,540.198387 373.290323,542.758065 C373.290323,544.241935 373.995161,545.651613 375.070968,546.541935 C374.58871,546.727419 374.143548,546.912903 373.698387,547.172581 C372.28871,545.503226 370.433871,544.204839 368.282258,543.574194 C369.914516,542.424194 371.064516,540.458065 371.064516,538.306452 C371.064516,534.930645 368.282258,532 365.129032,532 C361.975806,532 359.193548,534.930645 359.193548,538.306452 C359.193548,540.458065 360.343548,542.424194 361.975806,543.574194 C357.375806,544.946774 354,549.212903 354,554.258065 C354,554.666129 354.333871,555 354.741935,555 L385.16129,555 C385.569355,555 385.903226,554.666129 385.903226,554.258065 C385.903226,550.696774 383.603226,547.654839 380.412903,546.541935 L380.412903,546.541935 Z M374.774194,542.758065 C374.774194,541.2 376.072581,539.419355 377.741935,539.419355 C379.41129,539.419355 380.709677,541.2 380.709677,542.758065 C380.709677,544.316129 379.41129,546.096774 377.741935,546.096774 C376.072581,546.096774 374.774194,544.316129 374.774194,542.758065 L374.774194,542.758065 Z M360.677419,538.306452 C360.677419,536.043548 362.569355,533.483871 365.129032,533.483871 C367.68871,533.483871 369.580645,536.043548 369.580645,538.306452 C369.580645,540.569355 367.68871,543.129032 365.129032,543.129032 C362.569355,543.129032 360.677419,540.569355 360.677419,538.306452 L360.677419,538.306452 Z M355.520968,553.516129 C355.891935,548.545161 360.083871,544.612903 365.129032,544.612903 C370.174194,544.612903 374.366129,548.545161 374.737097,553.516129 L355.520968,553.516129 L355.520968,553.516129 Z M376.220968,553.516129 C376.109677,551.66129 375.516129,549.880645 374.551613,548.396774 C375.516129,547.877419 376.591935,547.580645 377.741935,547.580645 C381.154839,547.580645 384.01129,550.177419 384.382258,553.516129 L376.220968,553.516129 L376.220968,553.516129 Z" id="detailpage-icon-guests" sketch:type="MSShapeGroup"></path>
        </g>
    </g>
</svg>