<?xml version="1.0" encoding="UTF-8" standalone="no"?>
<svg width="42px" height="19px" viewBox="0 0 42 19" version="1.1" xmlns="http://www.w3.org/2000/svg" xmlns:xlink="http://www.w3.org/1999/xlink" xmlns:sketch="http://www.bohemiancoding.com/sketch/ns">
    <!-- Generator: Sketch 3.5 (25232) - http://www.bohemiancoding.com/sketch -->
    <title>detailpage-icon-beds@3x</title>
    <desc>Created with Sketch.</desc>
    <defs></defs>
    <g id="Welcome" stroke="none" stroke-width="1" fill="none" fill-rule="evenodd" sketch:type="MSPage">
        <g id="detailspage" sketch:type="MSArtboardGroup" transform="translate(-541.000000, -532.000000)" fill="#3E747E">
            <g id="detailpage-icon-beds" sketch:type="MSLayerGroup" transform="translate(541.000000, 532.000000)">
                <path d="M41.147,7.0385 L38.324,7.0385 L38.324,0.875 C38.324,0.4605 37.988,0.125 37.574,0.125 L4.427,0.125 C4.0125,0.125 3.677,0.4605 3.677,0.875 L3.677,7.0385 L0.853,7.0385 C0.4385,7.0385 0.103,7.374 0.103,7.7885 L0.103,13.7885 C0.103,14.203 0.4385,14.5385 0.853,14.5385 L2.9635,14.5385 L2.9635,18.125 C2.9635,18.539 3.299,18.875 3.7135,18.875 C4.128,18.875 4.4635,18.539 4.4635,18.125 L4.4635,14.5385 L37.5365,14.5385 L37.5365,18.125 C37.5365,18.539 37.8725,18.875 38.2865,18.875 C38.7005,18.875 39.0365,18.539 39.0365,18.125 L39.0365,14.5385 L41.147,14.5385 C41.561,14.5385 41.897,14.203 41.897,13.7885 L41.897,7.7885 C41.897,7.3745 41.561,7.0385 41.147,7.0385 L41.147,7.0385 Z M5.177,1.625 L36.824,1.625 L36.824,7.0385 L34.2145,7.0385 C34.315,6.8215 34.375,6.5825 34.375,6.3285 C34.375,5.392 33.613,4.6305 32.6765,4.6305 L23.8235,4.6305 C22.887,4.6305 22.125,5.392 22.125,6.3285 C22.125,6.5825 22.185,6.8215 22.2855,7.0385 L19.714,7.0385 C19.8145,6.8215 19.8745,6.5825 19.8745,6.3285 C19.8745,5.392 19.1125,4.6305 18.176,4.6305 L9.3235,4.6305 C8.3865,4.6305 7.625,5.392 7.625,6.3285 C7.625,6.5825 7.685,6.8215 7.7855,7.0385 L5.1765,7.0385 L5.1765,1.625 L5.177,1.625 Z M23.625,6.3285 C23.625,6.219 23.7145,6.1305 23.8235,6.1305 L32.676,6.1305 C32.7855,6.1305 32.8745,6.2195 32.8745,6.3285 C32.8745,6.438 32.785,6.527 32.676,6.527 L23.8235,6.527 C23.7145,6.5275 23.625,6.438 23.625,6.3285 L23.625,6.3285 Z M9.125,6.3285 C9.125,6.219 9.214,6.1305 9.3235,6.1305 L18.176,6.1305 C18.2855,6.1305 18.3745,6.2195 18.3745,6.3285 C18.3745,6.438 18.2855,6.527 18.176,6.527 L9.3235,6.527 C9.214,6.5275 9.125,6.438 9.125,6.3285 L9.125,6.3285 Z M40.397,13.0385 L1.603,13.0385 L1.603,8.5385 L40.397,8.5385 L40.397,13.0385 L40.397,13.0385 Z" id="Shape" sketch:type="MSShapeGroup"></path>
            </g>
        </g>
    </g>
</svg>